<svg width="800" height="600" viewBox="0 0 800 600" fill="none" xmlns="http://www.w3.org/2000/svg">
  <rect width="800" height="600" fill="url(#gradient5)"/>
  
  <!-- Background pattern -->
  <defs>
    <linearGradient id="gradient5" x1="0%" y1="0%" x2="100%" y2="100%">
      <stop offset="0%" style="stop-color:#064e3b;stop-opacity:0.1"/>
      <stop offset="50%" style="stop-color:#022c22;stop-opacity:0.2"/>
      <stop offset="100%" style="stop-color:#10b981;stop-opacity:0.1"/>
    </linearGradient>
  </defs>
  
  <!-- Youth figures -->
  <circle cx="250" cy="200" r="25" fill="#fbbf24" opacity="0.8"/>
  <rect x="235" y="225" width="30" height="50" rx="15" fill="#fbbf24" opacity="0.8"/>
  
  <circle cx="350" cy="200" r="20" fill="#fbbf24" opacity="0.8"/>
  <rect x="340" y="220" width="20" height="40" rx="10" fill="#fbbf24" opacity="0.8"/>
  
  <circle cx="450" cy="200" r="22" fill="#fbbf24" opacity="0.8"/>
  <rect x="439" y="222" width="26" height="44" rx="13" fill="#fbbf24" opacity="0.8"/>
  
  <!-- Mini table -->
  <rect x="300" y="320" width="200" height="120" rx="8" fill="#f8fafc" stroke="#e2e8f0" stroke-width="2"/>
  <line x1="400" y1="320" x2="400" y2="440" stroke="#cbd5e1" stroke-width="2"/>
  
  <!-- Small balls -->
  <circle cx="350" cy="380" r="6" fill="#ef4444" opacity="0.8"/>
  <circle cx="450" cy="380" r="6" fill="#ef4444" opacity="0.8"/>
  
  <!-- Learning elements -->
  <rect x="150" y="300" width="80" height="60" rx="8" fill="#10b981" opacity="0.6"/>
  <rect x="570" y="300" width="80" height="60" rx="8" fill="#10b981" opacity="0.6"/>
  
  <!-- Growth arrows -->
  <path d="M 200 400 L 220 380 L 200 360" stroke="#10b981" stroke-width="3" fill="none" opacity="0.7"/>
  <path d="M 600 400 L 620 380 L 600 360" stroke="#10b981" stroke-width="3" fill="none" opacity="0.7"/>
  
  <!-- Text overlay -->
  <text x="400" y="520" font-family="Arial, sans-serif" font-size="24" font-weight="600" text-anchor="middle" fill="#374151" opacity="0.8">
    Youth Programs & Development
  </text>
</svg>
