<svg width="800" height="600" viewBox="0 0 800 600" fill="none" xmlns="http://www.w3.org/2000/svg">
  <rect width="800" height="600" fill="url(#gradient2)"/>
  
  <!-- Background pattern -->
  <defs>
    <linearGradient id="gradient2" x1="0%" y1="0%" x2="100%" y2="100%">
      <stop offset="0%" style="stop-color:#059669;stop-opacity:0.1"/>
      <stop offset="50%" style="stop-color:#047857;stop-opacity:0.2"/>
      <stop offset="100%" style="stop-color:#065f46;stop-opacity:0.1"/>
    </linearGradient>
  </defs>
  
  <!-- Club building -->
  <rect x="250" y="150" width="300" height="200" rx="8" fill="#f8fafc" stroke="#e2e8f0" stroke-width="2"/>
  <rect x="270" y="170" width="60" height="80" rx="4" fill="#cbd5e1" opacity="0.6"/>
  <rect x="350" y="170" width="60" height="80" rx="4" fill="#cbd5e1" opacity="0.6"/>
  <rect x="430" y="170" width="60" height="80" rx="4" fill="#cbd5e1" opacity="0.6"/>
  
  <!-- Door -->
  <rect x="370" y="250" width="60" height="100" rx="4" fill="#64748b"/>
  
  <!-- Tables inside -->
  <rect x="280" y="200" width="40" height="25" rx="2" fill="#10b981" opacity="0.7"/>
  <rect x="360" y="200" width="40" height="25" rx="2" fill="#10b981" opacity="0.7"/>
  <rect x="440" y="200" width="40" height="25" rx="2" fill="#10b981" opacity="0.7"/>
  
  <!-- People -->
  <circle cx="300" cy="220" r="8" fill="#374151" opacity="0.8"/>
  <circle cx="380" cy="220" r="8" fill="#374151" opacity="0.8"/>
  <circle cx="460" cy="220" r="8" fill="#374151" opacity="0.8"/>
  
  <!-- Community elements -->
  <circle cx="150" cy="400" r="20" fill="#f59e0b" opacity="0.6"/>
  <circle cx="650" cy="400" r="20" fill="#f59e0b" opacity="0.6"/>
  
  <!-- Text overlay -->
  <text x="400" y="500" font-family="Arial, sans-serif" font-size="24" font-weight="600" text-anchor="middle" fill="#374151" opacity="0.8">
    Club Community
  </text>
</svg>
